<svg id="visual" viewBox="0 0 2560 1440" width="2560" height="1440" xmlns="http://www.w3.org/2000/svg" xmlns:xlink="http://www.w3.org/1999/xlink" version="1.1"><rect x="0" y="0" width="2560" height="1440" fill="#A8A29E"></rect><g fill="none" stroke="#ECFCCB" stroke-width="3"><circle r="62" cx="138" cy="488"></circle><circle r="6" cx="1625" cy="489"></circle><circle r="13" cx="2300" cy="236"></circle><circle r="12" cx="838" cy="131"></circle><circle r="45" cx="1922" cy="1248"></circle><circle r="14" cx="2020" cy="326"></circle><circle r="33" cx="1683" cy="943"></circle><circle r="11" cx="1156" cy="752"></circle><circle r="6" cx="130" cy="238"></circle><circle r="5" cx="1710" cy="357"></circle><circle r="8" cx="591" cy="1003"></circle><circle r="54" cx="542" cy="545"></circle><circle r="21" cx="2185" cy="404"></circle><circle r="30" cx="843" cy="314"></circle><circle r="12" cx="297" cy="483"></circle><circle r="52" cx="1266" cy="526"></circle><circle r="51" cx="2396" cy="1185"></circle><circle r="33" cx="2227" cy="877"></circle><circle r="25" cx="2156" cy="616"></circle><circle r="33" cx="881" cy="1099"></circle><circle r="21" cx="1291" cy="987"></circle><circle r="14" cx="659" cy="161"></circle><circle r="44" cx="1532" cy="897"></circle><circle r="7" cx="526" cy="371"></circle><circle r="57" cx="859" cy="1250"></circle><circle r="13" cx="952" cy="249"></circle><circle r="41" cx="817" cy="683"></circle><circle r="19" cx="1716" cy="1254"></circle><circle r="14" cx="990" cy="948"></circle><circle r="25" cx="1356" cy="310"></circle><circle r="18" cx="2375" cy="642"></circle><circle r="8" cx="1013" cy="1351"></circle><circle r="7" cx="1586" cy="1368"></circle><circle r="5" cx="718" cy="341"></circle><circle r="12" cx="1924" cy="232"></circle><circle r="40" cx="1454" cy="533"></circle><circle r="55" cx="1754" cy="785"></circle><circle r="38" cx="2477" cy="200"></circle><circle r="9" cx="482" cy="176"></circle><circle r="27" cx="2032" cy="1023"></circle><circle r="58" cx="755" cy="1343"></circle><circle r="34" cx="1447" cy="1073"></circle><circle r="14" cx="1196" cy="1078"></circle><circle r="24" cx="416" cy="1084"></circle><circle r="16" cx="214" cy="679"></circle><circle r="59" cx="655" cy="877"></circle><circle r="14" cx="1554" cy="1227"></circle><circle r="60" cx="465" cy="1363"></circle><circle r="19" cx="1347" cy="120"></circle><circle r="42" cx="1786" cy="255"></circle><circle r="6" cx="1138" cy="620"></circle><circle r="59" cx="2202" cy="1316"></circle><circle r="37" cx="1007" cy="130"></circle><circle r="29" cx="961" cy="783"></circle><circle r="21" cx="1080" cy="1202"></circle><circle r="54" cx="1074" cy="409"></circle><circle r="27" cx="1280" cy="1338"></circle><circle r="23" cx="2015" cy="619"></circle><circle r="40" cx="670" cy="715"></circle><circle r="58" cx="145" cy="1132"></circle><circle r="18" cx="709" cy="576"></circle><circle r="47" cx="2361" cy="863"></circle><circle r="57" cx="1831" cy="111"></circle><circle r="38" cx="1211" cy="1223"></circle><circle r="24" cx="2486" cy="446"></circle><circle r="32" cx="1399" cy="650"></circle><circle r="54" cx="1114" cy="211"></circle><circle r="44" cx="396" cy="693"></circle><circle r="21" cx="1265" cy="665"></circle><circle r="50" cx="1537" cy="363"></circle><circle r="20" cx="514" cy="861"></circle><circle r="55" cx="1852" cy="523"></circle><circle r="47" cx="2497" cy="815"></circle><circle r="42" cx="777" cy="944"></circle><circle r="43" cx="393" cy="276"></circle><circle r="43" cx="1743" cy="621"></circle><circle r="49" cx="287" cy="1061"></circle><circle r="6" cx="302" cy="1192"></circle><circle r="56" cx="1670" cy="1121"></circle><circle r="36" cx="163" cy="1306"></circle><circle r="52" cx="2153" cy="1190"></circle><circle r="60" cx="1406" cy="1362"></circle><circle r="14" cx="1947" cy="437"></circle><circle r="49" cx="1533" cy="648"></circle><circle r="5" cx="684" cy="1179"></circle><circle r="5" cx="2439" cy="987"></circle><circle r="42" cx="277" cy="163"></circle><circle r="56" cx="989" cy="647"></circle><circle r="23" cx="2217" cy="1064"></circle><circle r="41" cx="2042" cy="768"></circle><circle r="48" cx="119" cy="799"></circle><circle r="35" cx="73" cy="63"></circle><circle r="23" cx="1475" cy="162"></circle><circle r="47" cx="272" cy="827"></circle><circle r="52" cx="2019" cy="1362"></circle><circle r="50" cx="2290" cy="546"></circle><circle r="32" cx="1122" cy="883"></circle><circle r="15" cx="339" cy="1334"></circle><circle r="6" cx="1992" cy="110"></circle><circle r="56" cx="559" cy="1275"></circle><circle r="50" cx="279" cy="347"></circle><circle r="47" cx="865" cy="529"></circle><circle r="54" cx="1617" cy="148"></circle><circle r="21" cx="1386" cy="824"></circle><circle r="20" cx="536" cy="1137"></circle><circle r="56" cx="134" cy="960"></circle><circle r="57" cx="2097" cy="882"></circle><circle r="24" cx="2340" cy="400"></circle><circle r="50" cx="1199" cy="77"></circle><circle r="25" cx="1871" cy="1018"></circle><circle r="42" cx="2237" cy="92"></circle><circle r="33" cx="1889" cy="753"></circle><circle r="11" cx="406" cy="956"></circle></g></svg>